In the midst of a tropical storm, the crew of an offshore oil rig must survive the rampage of a creature after invading its undersea habitat.
 
http://www.imdb.com/title/tt1093906/

Subtitles (srt) : Dutch, English.

Covers included.

Als er buiten een orkaan woedt, maakt een kleine maar ervaren ploeg op een booreiland zich klaar om de storm uit te zitten. Geïsoleerd op het booreiland is het snel gedaan met de rust onder de bemanning wanneer één van hen vermist wordt en een zoektocht niets oplevert. Ze komen er achter dat een dodelijk wezen de bemanning belaagd en ze één voor één elimineert. Omringd door een woeste zee, geen communicatiemiddelen en geen mogelijkheid om het platform te verlaten proberen de 'roughnecks' de stormachtige nacht te overleven met een onverbiddelijke kracht des doods die hen opjaagt.
 
http://www.moviemeter.nl/film/68112

Ondertitels (srt) : Engels, Nederlands.

Hoesjes bijgevoegd.

General
Complete name                    : The Rig-AC3-XviD-DVDRip[Eng]2010 2Lions-Team\The Rig-AC3-XviD-DVDRip[Eng]2010 2Lions-Team.avi
Format                           : AVI
Format/Info                      : Audio Video Interleave
File size                        : 1.31 GiB
Duration                         : 1h 34mn
Overall bit rate                 : 1 989 Kbps
Writing application              : VirtualDubMod 1.5.4.1 (build 2178/release)
Writing library                  : VirtualDubMod build 2178/release

Video
ID                               : 0
Format                           : MPEG-4 Visual
Format profile                   : Simple@L3
Format settings, BVOP            : No
Format settings, QPel            : No
Format settings, GMC             : No warppoints
Format settings, Matrix          : Default (H.263)
Codec ID                         : XVID
Codec ID/Hint                    : XviD
Duration                         : 1h 34mn
Bit rate                         : 1 531 Kbps
Width                            : 720 pixels
Height                           : 400 pixels
Display aspect ratio             : 16:9
Frame rate                       : 23.976 fps
Color space                      : YUV
Chroma subsampling               : 4:2:0
Bit depth                        : 8 bits
Scan type                        : Progressive
Bits/(Pixel*Frame)               : 0.222
Stream size                      : 1.01 GiB (77%)
Writing library                  : XviD 1.1.2 (UTC 2006-11-01)

Audio
ID                               : 1
Format                           : AC-3
Format/Info                      : Audio Coding 3
Mode extension                   : CM (complete main)
Codec ID                         : 2000
Duration                         : 1h 34mn
Bit rate mode                    : Constant
Bit rate                         : 448 Kbps
Channel(s)                       : 6 channels
Channel positions                : Front: L C R, Side: L R, LFE
Sampling rate                    : 48.0 KHz
Bit depth                        : 16 bits
Stream size                      : 302 MiB (23%)
Alignment                        : Split accross interleaves
Interleave, duration             : 42 ms (1.00 video frame)
Interleave, preload duration     : 500 ms

Thanks to BoH_BoH_MaN for the source, and Gollums-Team for the Dutch subs!

Brought to you by 
2Lions Team

meer zien??
                   
Kom dan eens kijken op ons NIEUWE forum 
            
http://www.2lions-site.nl/

2Lions the site to be for all your Dutch MOVIES and more

******************************************

DON T HIT AND RUN Niet gelijk afhaken als de FILM binnen is blijf seeden. 

Don`t quit after you finished the download, but keep seeding

There are fake torrents from uploaders who use our team name.
Those are not ours, or members from our team.
We 2Lions-Team are not responsible for the fake posts on our name

Wij 2Lions-Team zijn niet verantwoordelijk voor die zieke FAKE posten die op onze naam worden gedaan

Please check our site !!!

to the fakers , get a life !!!